<svg xmlns="http://www.w3.org/2000/svg" version="1.1" xmlns:xlink="http://www.w3.org/1999/xlink" xmlns:svgjs="http://svgjs.com/svgjs" width="1440" height="560" preserveAspectRatio="none" viewBox="0 0 1440 560"><g mask="url(&quot;#SvgjsMask9609&quot;)" fill="none"><rect width="1440" height="560" x="0" y="0" fill="url(#SvgjsLinearGradient9610)"></rect><g mask="url(&quot;#SvgjsMask9612&quot;)"><path d="M121 253L143 275L165 275L187 275L209 275M385 253L407 275L429 275L451 275M341 253L363 275L385 275M231 253L253 275L275 275M33 253L55 275L77 275L99 275M-11 275L11 253L33 253L55 253L77 253L99 253L121 253L143 253L165 253L187 253L209 253L231 253L253 253L275 253L297 253L319 253L341 253L363 253L385 253L407 253" stroke="url(#SvgjsLinearGradient9611)" stroke-width="3.67"></path><path d="M401.5 253 a5.5 5.5 0 1 0 11 0 a5.5 5.5 0 1 0 -11 0zM203.5 275 a5.5 5.5 0 1 0 11 0 a5.5 5.5 0 1 0 -11 0zM445.5 275 a5.5 5.5 0 1 0 11 0 a5.5 5.5 0 1 0 -11 0zM379.5 275 a5.5 5.5 0 1 0 11 0 a5.5 5.5 0 1 0 -11 0zM269.5 275 a5.5 5.5 0 1 0 11 0 a5.5 5.5 0 1 0 -11 0zM93.5 275 a5.5 5.5 0 1 0 11 0 a5.5 5.5 0 1 0 -11 0z" fill="url(#SvgjsLinearGradient9611)"></path><path d="M561 319L583 297L605 297L627 297L649 297L671 297L693 275L715 275L737 275M165 319L187 297L209 297L231 297M649 319L671 341L693 341L715 341M1067 297L1089 275M275 319L297 297M979 297L1001 275L1023 275L1045 275M715 319L737 297L759 297L781 275L803 275L825 275L847 275L869 275L891 275L913 275L935 275L957 275L979 275L1001 253M869 297L891 319L913 319L935 319L957 319L979 319L1001 319L1023 319L1045 319L1067 319L1089 319M143 319L165 297M77 319L99 297L121 297L143 297M55 319L77 297M473 319L495 297L517 275L539 275M-11 297L11 319L33 319L55 319L77 319L99 319L121 319L143 319L165 319L187 319L209 319L231 319L253 319L275 319L297 319L319 319L341 319L363 319L385 319L407 319L429 319L451 319L473 319L495 319L517 319L539 319L561 319L583 319L605 319L627 319L649 319L671 319L693 319L715 319L737 319L759 319L781 297L803 297L825 297L847 297L869 297L891 297L913 297L935 297L957 297L979 297L1001 297L1023 297L1045 297L1067 297L1089 297" stroke="url(#SvgjsLinearGradient9611)" stroke-width="3.67"></path><path d="M1083.5 297 a5.5 5.5 0 1 0 11 0 a5.5 5.5 0 1 0 -11 0zM731.5 275 a5.5 5.5 0 1 0 11 0 a5.5 5.5 0 1 0 -11 0zM225.5 297 a5.5 5.5 0 1 0 11 0 a5.5 5.5 0 1 0 -11 0zM709.5 341 a5.5 5.5 0 1 0 11 0 a5.5 5.5 0 1 0 -11 0zM1083.5 275 a5.5 5.5 0 1 0 11 0 a5.5 5.5 0 1 0 -11 0zM291.5 297 a5.5 5.5 0 1 0 11 0 a5.5 5.5 0 1 0 -11 0zM1039.5 275 a5.5 5.5 0 1 0 11 0 a5.5 5.5 0 1 0 -11 0zM995.5 253 a5.5 5.5 0 1 0 11 0 a5.5 5.5 0 1 0 -11 0zM1083.5 319 a5.5 5.5 0 1 0 11 0 a5.5 5.5 0 1 0 -11 0zM159.5 297 a5.5 5.5 0 1 0 11 0 a5.5 5.5 0 1 0 -11 0zM137.5 297 a5.5 5.5 0 1 0 11 0 a5.5 5.5 0 1 0 -11 0zM71.5 297 a5.5 5.5 0 1 0 11 0 a5.5 5.5 0 1 0 -11 0zM533.5 275 a5.5 5.5 0 1 0 11 0 a5.5 5.5 0 1 0 -11 0z" fill="url(#SvgjsLinearGradient9611)"></path><path d="M121 231L143 209L165 209L187 209M99 231L121 209M77 231L99 209M-11 253L11 231L33 231L55 231L77 231L99 231L121 231L143 231L165 231L187 231L209 231L231 231L253 231L275 231L297 231L319 231L341 231L363 231L385 231" stroke="url(#SvgjsLinearGradient9611)" stroke-width="3.67"></path><path d="M379.5 231 a5.5 5.5 0 1 0 11 0 a5.5 5.5 0 1 0 -11 0zM181.5 209 a5.5 5.5 0 1 0 11 0 a5.5 5.5 0 1 0 -11 0zM115.5 209 a5.5 5.5 0 1 0 11 0 a5.5 5.5 0 1 0 -11 0zM93.5 209 a5.5 5.5 0 1 0 11 0 a5.5 5.5 0 1 0 -11 0z" fill="url(#SvgjsLinearGradient9611)"></path><path d="M319 341L341 363L363 363L385 363L407 363M297 341L319 363M209 341L231 363M165 341L187 363L209 363M-11 319L11 341L33 341L55 341L77 341L99 341L121 341L143 341L165 341L187 341L209 341L231 341L253 341L275 341L297 341L319 341L341 341L363 341L385 341" stroke="url(#SvgjsLinearGradient9611)" stroke-width="3.67"></path><path d="M379.5 341 a5.5 5.5 0 1 0 11 0 a5.5 5.5 0 1 0 -11 0zM401.5 363 a5.5 5.5 0 1 0 11 0 a5.5 5.5 0 1 0 -11 0zM313.5 363 a5.5 5.5 0 1 0 11 0 a5.5 5.5 0 1 0 -11 0zM225.5 363 a5.5 5.5 0 1 0 11 0 a5.5 5.5 0 1 0 -11 0zM203.5 363 a5.5 5.5 0 1 0 11 0 a5.5 5.5 0 1 0 -11 0z" fill="url(#SvgjsLinearGradient9611)"></path><path d="M297 209L319 187L341 187L363 187L385 187L407 187M495 231L517 253L539 253L561 253L583 253L605 253M407 231L429 209L451 209L473 209M429 231L451 253L473 253L495 253M517 231L539 209L561 187L583 187L605 187M121 187L143 165L165 165L187 165L209 165M-11 231L11 209L33 209L55 209L77 187L99 187L121 187L143 187L165 187L187 187L209 209L231 209L253 209L275 209L297 209L319 209L341 209L363 209L385 209L407 231L429 231L451 231L473 231L495 231L517 231L539 231" stroke="url(#SvgjsLinearGradient9611)" stroke-width="3.67"></path><path d="M533.5 231 a5.5 5.5 0 1 0 11 0 a5.5 5.5 0 1 0 -11 0zM401.5 187 a5.5 5.5 0 1 0 11 0 a5.5 5.5 0 1 0 -11 0zM599.5 253 a5.5 5.5 0 1 0 11 0 a5.5 5.5 0 1 0 -11 0zM467.5 209 a5.5 5.5 0 1 0 11 0 a5.5 5.5 0 1 0 -11 0zM489.5 253 a5.5 5.5 0 1 0 11 0 a5.5 5.5 0 1 0 -11 0zM599.5 187 a5.5 5.5 0 1 0 11 0 a5.5 5.5 0 1 0 -11 0zM203.5 165 a5.5 5.5 0 1 0 11 0 a5.5 5.5 0 1 0 -11 0z" fill="url(#SvgjsLinearGradient9611)"></path><path d="M-11 341L11 363L33 363L55 363L77 363L99 363L121 363" stroke="url(#SvgjsLinearGradient9611)" stroke-width="3.67"></path><path d="M115.5 363 a5.5 5.5 0 1 0 11 0 a5.5 5.5 0 1 0 -11 0z" fill="url(#SvgjsLinearGradient9611)"></path><path d="M-11 209L11 187L33 187L55 187" stroke="url(#SvgjsLinearGradient9611)" stroke-width="3.67"></path><path d="M49.5 187 a5.5 5.5 0 1 0 11 0 a5.5 5.5 0 1 0 -11 0z" fill="url(#SvgjsLinearGradient9611)"></path><path d="M429 385L451 363M539 363L561 341L583 341L605 341M143 385L165 363M495 363L517 341L539 341M759 363L781 341L803 341L825 341M737 363L759 385M253 385L275 363L297 363M627 363L649 341M451 385L473 385M-11 363L11 385L33 385L55 385L77 385L99 385L121 385L143 385L165 385L187 385L209 385L231 385L253 385L275 385L297 385L319 385L341 385L363 385L385 385L407 385L429 385L451 385L473 363L495 363L517 363L539 363L561 363L583 363L605 363L627 363L649 363L671 363L693 363L715 363L737 363L759 363L781 363" stroke="url(#SvgjsLinearGradient9611)" stroke-width="3.67"></path><path d="M775.5 363 a5.5 5.5 0 1 0 11 0 a5.5 5.5 0 1 0 -11 0zM445.5 363 a5.5 5.5 0 1 0 11 0 a5.5 5.5 0 1 0 -11 0zM599.5 341 a5.5 5.5 0 1 0 11 0 a5.5 5.5 0 1 0 -11 0zM159.5 363 a5.5 5.5 0 1 0 11 0 a5.5 5.5 0 1 0 -11 0zM533.5 341 a5.5 5.5 0 1 0 11 0 a5.5 5.5 0 1 0 -11 0zM819.5 341 a5.5 5.5 0 1 0 11 0 a5.5 5.5 0 1 0 -11 0zM753.5 385 a5.5 5.5 0 1 0 11 0 a5.5 5.5 0 1 0 -11 0zM291.5 363 a5.5 5.5 0 1 0 11 0 a5.5 5.5 0 1 0 -11 0zM643.5 341 a5.5 5.5 0 1 0 11 0 a5.5 5.5 0 1 0 -11 0zM467.5 385 a5.5 5.5 0 1 0 11 0 a5.5 5.5 0 1 0 -11 0z" fill="url(#SvgjsLinearGradient9611)"></path><path d="M99 143L121 165M77 165L99 165M-11 187L11 165L33 165L55 165L77 165L99 143L121 143L143 143" stroke="url(#SvgjsLinearGradient9611)" stroke-width="3.67"></path><path d="M137.5 143 a5.5 5.5 0 1 0 11 0 a5.5 5.5 0 1 0 -11 0zM115.5 165 a5.5 5.5 0 1 0 11 0 a5.5 5.5 0 1 0 -11 0zM93.5 165 a5.5 5.5 0 1 0 11 0 a5.5 5.5 0 1 0 -11 0z" fill="url(#SvgjsLinearGradient9611)"></path><path d="M693 385L715 407L737 429L759 429L781 429M385 407L407 429L429 429L451 429L473 429L495 407M605 385L627 407L649 407L671 407M583 385L605 407L627 429L649 429M913 407L935 385L957 385L979 385L1001 363L1023 363L1045 363L1067 341L1089 341L1111 341M1045 385L1067 385L1089 385M517 385L539 407L561 407L583 407L605 429L627 451L649 451L671 451M869 407L891 385L913 385L935 363L957 363M187 407L209 429L231 429L253 429L275 429M979 407L1001 407L1023 407L1045 407L1067 429L1089 429L1111 429M715 385L737 385M847 407L869 429L891 429L913 429L935 429M-11 385L11 407L33 407L55 407L77 407L99 407L121 407L143 407L165 407L187 407L209 407L231 407L253 407L275 407L297 407L319 407L341 407L363 407L385 407L407 407L429 407L451 407L473 407L495 385L517 385L539 385L561 385L583 385L605 385L627 385L649 385L671 385L693 385L715 385L737 407L759 407L781 407L803 407L825 407L847 407L869 407L891 407L913 407L935 407L957 407L979 407L1001 385L1023 385L1045 385L1067 363L1089 363" stroke="url(#SvgjsLinearGradient9611)" stroke-width="3.67"></path><path d="M1083.5 363 a5.5 5.5 0 1 0 11 0 a5.5 5.5 0 1 0 -11 0zM775.5 429 a5.5 5.5 0 1 0 11 0 a5.5 5.5 0 1 0 -11 0zM489.5 407 a5.5 5.5 0 1 0 11 0 a5.5 5.5 0 1 0 -11 0zM665.5 407 a5.5 5.5 0 1 0 11 0 a5.5 5.5 0 1 0 -11 0zM643.5 429 a5.5 5.5 0 1 0 11 0 a5.5 5.5 0 1 0 -11 0zM1105.5 341 a5.5 5.5 0 1 0 11 0 a5.5 5.5 0 1 0 -11 0zM1083.5 385 a5.5 5.5 0 1 0 11 0 a5.5 5.5 0 1 0 -11 0zM665.5 451 a5.5 5.5 0 1 0 11 0 a5.5 5.5 0 1 0 -11 0zM951.5 363 a5.5 5.5 0 1 0 11 0 a5.5 5.5 0 1 0 -11 0zM269.5 429 a5.5 5.5 0 1 0 11 0 a5.5 5.5 0 1 0 -11 0zM1105.5 429 a5.5 5.5 0 1 0 11 0 a5.5 5.5 0 1 0 -11 0zM731.5 385 a5.5 5.5 0 1 0 11 0 a5.5 5.5 0 1 0 -11 0zM929.5 429 a5.5 5.5 0 1 0 11 0 a5.5 5.5 0 1 0 -11 0z" fill="url(#SvgjsLinearGradient9611)"></path><path d="M385 121L407 143M715 77L737 99L759 99L781 99L803 99L825 121L847 121L869 143M231 121L253 99L275 99L297 99L319 99L341 99L363 99L385 99L407 99L429 99L451 99L473 99L495 99L517 77L539 77L561 77M649 99L671 77L693 77M583 121L605 143L627 143L649 143L671 143M781 77L803 55L825 55L847 55L869 55M605 121L627 121L649 121L671 121L693 121L715 121L737 121L759 121M363 121L385 143L407 165L429 165L451 143L473 143L495 143L517 165L539 165L561 165L583 165L605 165L627 165L649 165L671 187L693 187L715 187L737 209L759 209L781 209M319 121L341 143L363 143L385 165M187 121L209 99M693 99L715 99M-11 165L11 143L33 143L55 143L77 143L99 121L121 121L143 121L165 121L187 121L209 121L231 121L253 121L275 121L297 121L319 121L341 121L363 121L385 121L407 121L429 121L451 121L473 121L495 121L517 121L539 121L561 121L583 121L605 121L627 99L649 99L671 99L693 99L715 77L737 77L759 77L781 77L803 77L825 77L847 77L869 77L891 55L913 55L935 55" stroke="url(#SvgjsLinearGradient9611)" stroke-width="3.67"></path><path d="M929.5 55 a5.5 5.5 0 1 0 11 0 a5.5 5.5 0 1 0 -11 0zM401.5 143 a5.5 5.5 0 1 0 11 0 a5.5 5.5 0 1 0 -11 0zM863.5 143 a5.5 5.5 0 1 0 11 0 a5.5 5.5 0 1 0 -11 0zM555.5 77 a5.5 5.5 0 1 0 11 0 a5.5 5.5 0 1 0 -11 0zM687.5 77 a5.5 5.5 0 1 0 11 0 a5.5 5.5 0 1 0 -11 0zM665.5 143 a5.5 5.5 0 1 0 11 0 a5.5 5.5 0 1 0 -11 0zM863.5 55 a5.5 5.5 0 1 0 11 0 a5.5 5.5 0 1 0 -11 0zM753.5 121 a5.5 5.5 0 1 0 11 0 a5.5 5.5 0 1 0 -11 0zM775.5 209 a5.5 5.5 0 1 0 11 0 a5.5 5.5 0 1 0 -11 0zM379.5 165 a5.5 5.5 0 1 0 11 0 a5.5 5.5 0 1 0 -11 0zM203.5 99 a5.5 5.5 0 1 0 11 0 a5.5 5.5 0 1 0 -11 0zM709.5 99 a5.5 5.5 0 1 0 11 0 a5.5 5.5 0 1 0 -11 0z" fill="url(#SvgjsLinearGradient9611)"></path><path d="M825 473L847 451L869 451L891 451L913 451L935 451L957 451L979 429L1001 429L1023 429L1045 429L1067 451M231 451L253 451L275 451M1133 473L1155 451L1177 451M1177 473L1199 473L1221 473L1243 473L1265 495L1287 495L1309 495M539 495L561 473L583 451L605 451M77 429L99 451L121 451L143 451L165 451L187 473L209 473L231 473L253 495L275 517L297 517M715 495L737 517L759 517L781 517L803 517L825 517L847 517L869 517L891 517L913 517L935 517L957 517M341 495L363 517L385 517L407 517L429 517L451 517L473 517L495 517L517 517L539 517L561 517L583 517M913 473L935 495L957 495L979 495L1001 495M319 495L341 517M1155 473L1177 495L1199 517M781 495L803 473L825 451L847 429M33 429L55 451M165 429L187 429M-11 407L11 429L33 429L55 429L77 429L99 429L121 429L143 429L165 429L187 451L209 451L231 451L253 473L275 495L297 495L319 495L341 495L363 495L385 495L407 495L429 495L451 495L473 495L495 495L517 495L539 495L561 495L583 473L605 473L627 473L649 473L671 495L693 495L715 495L737 495L759 495L781 495L803 495L825 473L847 473L869 473L891 473L913 473L935 473L957 473L979 473L1001 473L1023 473L1045 473L1067 473L1089 473L1111 473L1133 473L1155 473L1177 473L1199 495L1221 495" stroke="url(#SvgjsLinearGradient9611)" stroke-width="3.67"></path><path d="M1215.5 495 a5.5 5.5 0 1 0 11 0 a5.5 5.5 0 1 0 -11 0zM1061.5 451 a5.5 5.5 0 1 0 11 0 a5.5 5.5 0 1 0 -11 0zM269.5 451 a5.5 5.5 0 1 0 11 0 a5.5 5.5 0 1 0 -11 0zM1171.5 451 a5.5 5.5 0 1 0 11 0 a5.5 5.5 0 1 0 -11 0zM1303.5 495 a5.5 5.5 0 1 0 11 0 a5.5 5.5 0 1 0 -11 0zM599.5 451 a5.5 5.5 0 1 0 11 0 a5.5 5.5 0 1 0 -11 0zM291.5 517 a5.5 5.5 0 1 0 11 0 a5.5 5.5 0 1 0 -11 0zM951.5 517 a5.5 5.5 0 1 0 11 0 a5.5 5.5 0 1 0 -11 0zM577.5 517 a5.5 5.5 0 1 0 11 0 a5.5 5.5 0 1 0 -11 0zM995.5 495 a5.5 5.5 0 1 0 11 0 a5.5 5.5 0 1 0 -11 0zM335.5 517 a5.5 5.5 0 1 0 11 0 a5.5 5.5 0 1 0 -11 0zM1193.5 517 a5.5 5.5 0 1 0 11 0 a5.5 5.5 0 1 0 -11 0zM841.5 429 a5.5 5.5 0 1 0 11 0 a5.5 5.5 0 1 0 -11 0zM49.5 451 a5.5 5.5 0 1 0 11 0 a5.5 5.5 0 1 0 -11 0zM181.5 429 a5.5 5.5 0 1 0 11 0 a5.5 5.5 0 1 0 -11 0z" fill="url(#SvgjsLinearGradient9611)"></path><path d="M231 77L253 55L275 55L297 55L319 55L341 55L363 55L385 55M605 55L627 77L649 77M583 55L605 77M385 77L407 77L429 77L451 77M99 99L121 77M165 99L187 99M55 121L77 99L99 77L121 55L143 55L165 55L187 55M473 55L495 77M143 99L165 77M-11 143L11 121L33 121L55 121L77 121L99 99L121 99L143 99L165 99L187 77L209 77L231 77L253 77L275 77L297 77L319 77L341 77L363 77L385 77L407 55L429 55L451 55L473 55L495 55L517 55L539 55L561 55L583 55L605 55L627 55L649 55L671 55L693 55L715 55L737 55L759 55" stroke="url(#SvgjsLinearGradient9611)" stroke-width="3.67"></path><path d="M753.5 55 a5.5 5.5 0 1 0 11 0 a5.5 5.5 0 1 0 -11 0zM379.5 55 a5.5 5.5 0 1 0 11 0 a5.5 5.5 0 1 0 -11 0zM643.5 77 a5.5 5.5 0 1 0 11 0 a5.5 5.5 0 1 0 -11 0zM599.5 77 a5.5 5.5 0 1 0 11 0 a5.5 5.5 0 1 0 -11 0zM445.5 77 a5.5 5.5 0 1 0 11 0 a5.5 5.5 0 1 0 -11 0zM115.5 77 a5.5 5.5 0 1 0 11 0 a5.5 5.5 0 1 0 -11 0zM181.5 99 a5.5 5.5 0 1 0 11 0 a5.5 5.5 0 1 0 -11 0zM181.5 55 a5.5 5.5 0 1 0 11 0 a5.5 5.5 0 1 0 -11 0zM489.5 77 a5.5 5.5 0 1 0 11 0 a5.5 5.5 0 1 0 -11 0zM159.5 77 a5.5 5.5 0 1 0 11 0 a5.5 5.5 0 1 0 -11 0z" fill="url(#SvgjsLinearGradient9611)"></path></g></g><defs><mask id="SvgjsMask9609"><rect width="1440" height="560" fill="#ffffff"></rect></mask><linearGradient x1="100%" y1="50%" x2="0%" y2="50%" gradientUnits="userSpaceOnUse" id="SvgjsLinearGradient9610"><stop stop-color="rgba(27, 42, 65, 1)" offset="0.42"></stop><stop stop-color="rgba(219, 134, 34, 1)" offset="1"></stop></linearGradient><linearGradient x1="0" y1="280" x2="1382.4" y2="280" gradientUnits="userSpaceOnUse" id="SvgjsLinearGradient9611"><stop stop-color="rgba(58, 124, 195, 1)" offset="0"></stop><stop stop-color="rgba(218, 218, 218, 1)" offset="0.42"></stop></linearGradient><mask id="SvgjsMask9612"><rect width="1440" height="560" fill="white"></rect><path d="M404.25 253 a2.75 2.75 0 1 0 5.5 0 a2.75 2.75 0 1 0 -5.5 0zM206.25 275 a2.75 2.75 0 1 0 5.5 0 a2.75 2.75 0 1 0 -5.5 0zM448.25 275 a2.75 2.75 0 1 0 5.5 0 a2.75 2.75 0 1 0 -5.5 0zM382.25 275 a2.75 2.75 0 1 0 5.5 0 a2.75 2.75 0 1 0 -5.5 0zM272.25 275 a2.75 2.75 0 1 0 5.5 0 a2.75 2.75 0 1 0 -5.5 0zM96.25 275 a2.75 2.75 0 1 0 5.5 0 a2.75 2.75 0 1 0 -5.5 0z" fill="black"></path><path d="M1086.25 297 a2.75 2.75 0 1 0 5.5 0 a2.75 2.75 0 1 0 -5.5 0zM734.25 275 a2.75 2.75 0 1 0 5.5 0 a2.75 2.75 0 1 0 -5.5 0zM228.25 297 a2.75 2.75 0 1 0 5.5 0 a2.75 2.75 0 1 0 -5.5 0zM712.25 341 a2.75 2.75 0 1 0 5.5 0 a2.75 2.75 0 1 0 -5.5 0zM1086.25 275 a2.75 2.75 0 1 0 5.5 0 a2.75 2.75 0 1 0 -5.5 0zM294.25 297 a2.75 2.75 0 1 0 5.5 0 a2.75 2.75 0 1 0 -5.5 0zM1042.25 275 a2.75 2.75 0 1 0 5.5 0 a2.75 2.75 0 1 0 -5.5 0zM998.25 253 a2.75 2.75 0 1 0 5.5 0 a2.75 2.75 0 1 0 -5.5 0zM1086.25 319 a2.75 2.75 0 1 0 5.5 0 a2.75 2.75 0 1 0 -5.5 0zM162.25 297 a2.75 2.75 0 1 0 5.5 0 a2.75 2.75 0 1 0 -5.5 0zM140.25 297 a2.75 2.75 0 1 0 5.5 0 a2.75 2.75 0 1 0 -5.5 0zM74.25 297 a2.75 2.75 0 1 0 5.5 0 a2.75 2.75 0 1 0 -5.5 0zM536.25 275 a2.75 2.75 0 1 0 5.5 0 a2.75 2.75 0 1 0 -5.5 0z" fill="black"></path><path d="M382.25 231 a2.75 2.75 0 1 0 5.5 0 a2.75 2.75 0 1 0 -5.5 0zM184.25 209 a2.75 2.75 0 1 0 5.5 0 a2.75 2.75 0 1 0 -5.5 0zM118.25 209 a2.75 2.75 0 1 0 5.5 0 a2.75 2.75 0 1 0 -5.5 0zM96.25 209 a2.75 2.75 0 1 0 5.5 0 a2.75 2.75 0 1 0 -5.5 0z" fill="black"></path><path d="M382.25 341 a2.75 2.75 0 1 0 5.5 0 a2.75 2.75 0 1 0 -5.5 0zM404.25 363 a2.75 2.75 0 1 0 5.5 0 a2.75 2.75 0 1 0 -5.5 0zM316.25 363 a2.75 2.75 0 1 0 5.5 0 a2.75 2.75 0 1 0 -5.5 0zM228.25 363 a2.75 2.75 0 1 0 5.5 0 a2.75 2.75 0 1 0 -5.5 0zM206.25 363 a2.75 2.75 0 1 0 5.5 0 a2.75 2.75 0 1 0 -5.5 0z" fill="black"></path><path d="M536.25 231 a2.75 2.75 0 1 0 5.5 0 a2.75 2.75 0 1 0 -5.5 0zM404.25 187 a2.75 2.75 0 1 0 5.5 0 a2.75 2.75 0 1 0 -5.5 0zM602.25 253 a2.75 2.75 0 1 0 5.5 0 a2.75 2.75 0 1 0 -5.5 0zM470.25 209 a2.75 2.75 0 1 0 5.5 0 a2.75 2.75 0 1 0 -5.5 0zM492.25 253 a2.75 2.75 0 1 0 5.5 0 a2.75 2.75 0 1 0 -5.5 0zM602.25 187 a2.75 2.75 0 1 0 5.5 0 a2.75 2.75 0 1 0 -5.5 0zM206.25 165 a2.75 2.75 0 1 0 5.5 0 a2.75 2.75 0 1 0 -5.5 0z" fill="black"></path><path d="M118.25 363 a2.75 2.75 0 1 0 5.5 0 a2.75 2.75 0 1 0 -5.5 0z" fill="black"></path><path d="M52.25 187 a2.75 2.75 0 1 0 5.5 0 a2.75 2.75 0 1 0 -5.5 0z" fill="black"></path><path d="M778.25 363 a2.75 2.75 0 1 0 5.5 0 a2.75 2.75 0 1 0 -5.5 0zM448.25 363 a2.75 2.75 0 1 0 5.5 0 a2.75 2.75 0 1 0 -5.5 0zM602.25 341 a2.75 2.75 0 1 0 5.5 0 a2.75 2.75 0 1 0 -5.5 0zM162.25 363 a2.75 2.75 0 1 0 5.5 0 a2.75 2.75 0 1 0 -5.5 0zM536.25 341 a2.75 2.75 0 1 0 5.5 0 a2.75 2.75 0 1 0 -5.5 0zM822.25 341 a2.75 2.75 0 1 0 5.5 0 a2.75 2.75 0 1 0 -5.5 0zM756.25 385 a2.75 2.75 0 1 0 5.5 0 a2.75 2.75 0 1 0 -5.5 0zM294.25 363 a2.75 2.75 0 1 0 5.5 0 a2.75 2.75 0 1 0 -5.5 0zM646.25 341 a2.75 2.75 0 1 0 5.5 0 a2.75 2.75 0 1 0 -5.5 0zM470.25 385 a2.75 2.75 0 1 0 5.5 0 a2.75 2.75 0 1 0 -5.5 0z" fill="black"></path><path d="M140.25 143 a2.75 2.75 0 1 0 5.5 0 a2.75 2.75 0 1 0 -5.5 0zM118.25 165 a2.75 2.75 0 1 0 5.5 0 a2.75 2.75 0 1 0 -5.5 0zM96.25 165 a2.75 2.75 0 1 0 5.5 0 a2.75 2.75 0 1 0 -5.5 0z" fill="black"></path><path d="M1086.25 363 a2.75 2.75 0 1 0 5.5 0 a2.75 2.75 0 1 0 -5.5 0zM778.25 429 a2.75 2.75 0 1 0 5.5 0 a2.75 2.75 0 1 0 -5.5 0zM492.25 407 a2.75 2.75 0 1 0 5.5 0 a2.75 2.75 0 1 0 -5.5 0zM668.25 407 a2.75 2.75 0 1 0 5.5 0 a2.75 2.75 0 1 0 -5.5 0zM646.25 429 a2.75 2.75 0 1 0 5.5 0 a2.75 2.75 0 1 0 -5.5 0zM1108.25 341 a2.75 2.75 0 1 0 5.5 0 a2.75 2.75 0 1 0 -5.5 0zM1086.25 385 a2.75 2.75 0 1 0 5.5 0 a2.75 2.75 0 1 0 -5.5 0zM668.25 451 a2.75 2.75 0 1 0 5.5 0 a2.75 2.75 0 1 0 -5.5 0zM954.25 363 a2.75 2.75 0 1 0 5.5 0 a2.75 2.75 0 1 0 -5.5 0zM272.25 429 a2.75 2.75 0 1 0 5.5 0 a2.75 2.75 0 1 0 -5.5 0zM1108.25 429 a2.75 2.75 0 1 0 5.5 0 a2.75 2.75 0 1 0 -5.5 0zM734.25 385 a2.75 2.75 0 1 0 5.5 0 a2.75 2.75 0 1 0 -5.5 0zM932.25 429 a2.75 2.75 0 1 0 5.5 0 a2.75 2.75 0 1 0 -5.5 0z" fill="black"></path><path d="M932.25 55 a2.75 2.75 0 1 0 5.5 0 a2.75 2.75 0 1 0 -5.5 0zM404.25 143 a2.75 2.75 0 1 0 5.5 0 a2.75 2.75 0 1 0 -5.5 0zM866.25 143 a2.75 2.75 0 1 0 5.5 0 a2.75 2.75 0 1 0 -5.5 0zM558.25 77 a2.75 2.75 0 1 0 5.5 0 a2.75 2.75 0 1 0 -5.5 0zM690.25 77 a2.75 2.75 0 1 0 5.5 0 a2.75 2.75 0 1 0 -5.5 0zM668.25 143 a2.75 2.75 0 1 0 5.5 0 a2.75 2.75 0 1 0 -5.5 0zM866.25 55 a2.75 2.75 0 1 0 5.5 0 a2.75 2.75 0 1 0 -5.5 0zM756.25 121 a2.75 2.75 0 1 0 5.5 0 a2.75 2.75 0 1 0 -5.5 0zM778.25 209 a2.75 2.75 0 1 0 5.5 0 a2.75 2.75 0 1 0 -5.5 0zM382.25 165 a2.75 2.75 0 1 0 5.5 0 a2.75 2.75 0 1 0 -5.5 0zM206.25 99 a2.75 2.75 0 1 0 5.5 0 a2.75 2.75 0 1 0 -5.5 0zM712.25 99 a2.75 2.75 0 1 0 5.5 0 a2.75 2.75 0 1 0 -5.5 0z" fill="black"></path><path d="M1218.25 495 a2.75 2.75 0 1 0 5.5 0 a2.75 2.75 0 1 0 -5.5 0zM1064.25 451 a2.75 2.75 0 1 0 5.5 0 a2.75 2.75 0 1 0 -5.5 0zM272.25 451 a2.75 2.75 0 1 0 5.5 0 a2.75 2.75 0 1 0 -5.5 0zM1174.25 451 a2.75 2.75 0 1 0 5.5 0 a2.75 2.75 0 1 0 -5.5 0zM1306.25 495 a2.75 2.75 0 1 0 5.5 0 a2.75 2.75 0 1 0 -5.5 0zM602.25 451 a2.75 2.75 0 1 0 5.5 0 a2.75 2.75 0 1 0 -5.5 0zM294.25 517 a2.75 2.75 0 1 0 5.5 0 a2.75 2.75 0 1 0 -5.5 0zM954.25 517 a2.75 2.75 0 1 0 5.5 0 a2.75 2.75 0 1 0 -5.5 0zM580.25 517 a2.75 2.75 0 1 0 5.5 0 a2.75 2.75 0 1 0 -5.5 0zM998.25 495 a2.75 2.75 0 1 0 5.5 0 a2.75 2.75 0 1 0 -5.5 0zM338.25 517 a2.75 2.75 0 1 0 5.5 0 a2.75 2.75 0 1 0 -5.5 0zM1196.25 517 a2.75 2.75 0 1 0 5.5 0 a2.75 2.75 0 1 0 -5.5 0zM844.25 429 a2.75 2.75 0 1 0 5.5 0 a2.75 2.75 0 1 0 -5.5 0zM52.25 451 a2.75 2.75 0 1 0 5.5 0 a2.75 2.75 0 1 0 -5.5 0zM184.25 429 a2.75 2.75 0 1 0 5.5 0 a2.75 2.75 0 1 0 -5.5 0z" fill="black"></path><path d="M756.25 55 a2.75 2.75 0 1 0 5.5 0 a2.75 2.75 0 1 0 -5.5 0zM382.25 55 a2.75 2.75 0 1 0 5.5 0 a2.75 2.75 0 1 0 -5.5 0zM646.25 77 a2.75 2.75 0 1 0 5.5 0 a2.75 2.75 0 1 0 -5.5 0zM602.25 77 a2.75 2.75 0 1 0 5.5 0 a2.75 2.75 0 1 0 -5.5 0zM448.25 77 a2.75 2.75 0 1 0 5.5 0 a2.75 2.75 0 1 0 -5.5 0zM118.25 77 a2.75 2.75 0 1 0 5.5 0 a2.75 2.75 0 1 0 -5.5 0zM184.25 99 a2.75 2.75 0 1 0 5.5 0 a2.75 2.75 0 1 0 -5.5 0zM184.25 55 a2.75 2.75 0 1 0 5.5 0 a2.75 2.75 0 1 0 -5.5 0zM492.25 77 a2.75 2.75 0 1 0 5.5 0 a2.75 2.75 0 1 0 -5.5 0zM162.25 77 a2.75 2.75 0 1 0 5.5 0 a2.75 2.75 0 1 0 -5.5 0z" fill="black"></path></mask></defs></svg>