<svg xmlns="http://www.w3.org/2000/svg" version="1.1" xmlns:xlink="http://www.w3.org/1999/xlink" xmlns:svgjs="http://svgjs.com/svgjs" width="1440" height="1000" preserveAspectRatio="none" viewBox="0 0 1440 1000"><g mask="url(&quot;#SvgjsMask3680&quot;)" fill="none"><rect width="1440" height="1000" x="0" y="0" fill="url(#SvgjsLinearGradient3681)"></rect><path d="M1294 958L1293 1603" stroke-width="8" stroke="url(#SvgjsLinearGradient3682)" stroke-linecap="round" class="Up"></path><path d="M956 349L955 918" stroke-width="10" stroke="url(#SvgjsLinearGradient3682)" stroke-linecap="round" class="Up"></path><path d="M878 516L877 1179" stroke-width="8" stroke="url(#SvgjsLinearGradient3682)" stroke-linecap="round" class="Up"></path><path d="M1438 400L1437 120" stroke-width="6" stroke="url(#SvgjsLinearGradient3683)" stroke-linecap="round" class="Down"></path><path d="M837 603L836 1127" stroke-width="8" stroke="url(#SvgjsLinearGradient3683)" stroke-linecap="round" class="Down"></path><path d="M233 326L232 -221" stroke-width="6" stroke="url(#SvgjsLinearGradient3683)" stroke-linecap="round" class="Down"></path><path d="M272 602L271 -105" stroke-width="10" stroke="url(#SvgjsLinearGradient3682)" stroke-linecap="round" class="Up"></path><path d="M570 246L569 -271" stroke-width="8" stroke="url(#SvgjsLinearGradient3682)" stroke-linecap="round" class="Up"></path><path d="M174 108L173 371" stroke-width="8" stroke="url(#SvgjsLinearGradient3683)" stroke-linecap="round" class="Down"></path><path d="M1351 506L1350 1217" stroke-width="6" stroke="url(#SvgjsLinearGradient3683)" stroke-linecap="round" class="Down"></path><path d="M741 540L740 989" stroke-width="6" stroke="url(#SvgjsLinearGradient3682)" stroke-linecap="round" class="Up"></path><path d="M268 366L267 731" stroke-width="8" stroke="url(#SvgjsLinearGradient3683)" stroke-linecap="round" class="Down"></path><path d="M804 960L803 390" stroke-width="8" stroke="url(#SvgjsLinearGradient3683)" stroke-linecap="round" class="Down"></path><path d="M72 591L71 203" stroke-width="6" stroke="url(#SvgjsLinearGradient3682)" stroke-linecap="round" class="Up"></path><path d="M451 554L450 52" stroke-width="6" stroke="url(#SvgjsLinearGradient3682)" stroke-linecap="round" class="Up"></path><path d="M43 955L42 1252" stroke-width="10" stroke="url(#SvgjsLinearGradient3682)" stroke-linecap="round" class="Up"></path><path d="M1342 253L1341 972" stroke-width="10" stroke="url(#SvgjsLinearGradient3682)" stroke-linecap="round" class="Up"></path><path d="M359 869L358 1150" stroke-width="8" stroke="url(#SvgjsLinearGradient3682)" stroke-linecap="round" class="Up"></path><path d="M880 763L879 90" stroke-width="8" stroke="url(#SvgjsLinearGradient3682)" stroke-linecap="round" class="Up"></path><path d="M237 801L236 1126" stroke-width="6" stroke="url(#SvgjsLinearGradient3682)" stroke-linecap="round" class="Up"></path><path d="M875 416L874 -169" stroke-width="6" stroke="url(#SvgjsLinearGradient3682)" stroke-linecap="round" class="Up"></path><path d="M663 960L662 544" stroke-width="6" stroke="url(#SvgjsLinearGradient3683)" stroke-linecap="round" class="Down"></path><path d="M474 694L473 355" stroke-width="10" stroke="url(#SvgjsLinearGradient3683)" stroke-linecap="round" class="Down"></path><path d="M346 929L345 495" stroke-width="10" stroke="url(#SvgjsLinearGradient3682)" stroke-linecap="round" class="Up"></path><path d="M646 22L645 -419" stroke-width="6" stroke="url(#SvgjsLinearGradient3682)" stroke-linecap="round" class="Up"></path><path d="M174 343L173 -288" stroke-width="10" stroke="url(#SvgjsLinearGradient3682)" stroke-linecap="round" class="Up"></path><path d="M211 600L210 1334" stroke-width="6" stroke="url(#SvgjsLinearGradient3682)" stroke-linecap="round" class="Up"></path><path d="M799 692L798 1158" stroke-width="6" stroke="url(#SvgjsLinearGradient3683)" stroke-linecap="round" class="Down"></path><path d="M1231 950L1230 1588" stroke-width="6" stroke="url(#SvgjsLinearGradient3683)" stroke-linecap="round" class="Down"></path><path d="M1075 577L1074 114" stroke-width="10" stroke="url(#SvgjsLinearGradient3682)" stroke-linecap="round" class="Up"></path><path d="M640 588L639 300" stroke-width="6" stroke="url(#SvgjsLinearGradient3683)" stroke-linecap="round" class="Down"></path><path d="M677 315L676 -302" stroke-width="8" stroke="url(#SvgjsLinearGradient3683)" stroke-linecap="round" class="Down"></path><path d="M524 968L523 621" stroke-width="6" stroke="url(#SvgjsLinearGradient3683)" stroke-linecap="round" class="Down"></path><path d="M1350 23L1349 562" stroke-width="6" stroke="url(#SvgjsLinearGradient3683)" stroke-linecap="round" class="Down"></path><path d="M319 170L318 701" stroke-width="8" stroke="url(#SvgjsLinearGradient3682)" stroke-linecap="round" class="Up"></path><path d="M144 951L143 1295" stroke-width="10" stroke="url(#SvgjsLinearGradient3683)" stroke-linecap="round" class="Down"></path></g><defs><mask id="SvgjsMask3680"><rect width="1440" height="1000" fill="#ffffff"></rect></mask><linearGradient x1="92.36%" y1="111%" x2="7.64%" y2="-11%" gradientUnits="userSpaceOnUse" id="SvgjsLinearGradient3681"><stop stop-color="rgba(14, 42, 71, 1)" offset="0.15"></stop><stop stop-color="rgba(211, 148, 33, 1)" offset="0.65"></stop><stop stop-color="rgba(211, 148, 33, 1)" offset="0.79"></stop><stop stop-color="rgba(255, 255, 255, 1)" offset="1"></stop><stop stop-color="rgba(14, 42, 71, 1)" offset="1"></stop></linearGradient><linearGradient x1="0%" y1="100%" x2="0%" y2="0%" id="SvgjsLinearGradient3682"><stop stop-color="rgba(28, 83, 142, 0)" offset="0"></stop><stop stop-color="#1c538e" offset="1"></stop></linearGradient><linearGradient x1="0%" y1="0%" x2="0%" y2="100%" id="SvgjsLinearGradient3683"><stop stop-color="rgba(28, 83, 142, 0)" offset="0"></stop><stop stop-color="#1c538e" offset="1"></stop></linearGradient></defs></svg>